<svg xmlns="http://www.w3.org/2000/svg" width="30.789" height="30.728" viewBox="0 0 30.789 30.728">
  <g id="Connect_1_" transform="translate(0 0)">
    <g id="Group_21" data-name="Group 21" transform="translate(0 0)">
      <g id="Group_18" data-name="Group 18" transform="translate(10.884)">
        <path id="Path_3455" data-name="Path 3455" d="M185.51,9.52a4.51,4.51,0,1,1,4.51-4.51A4.515,4.515,0,0,1,185.51,9.52Z" transform="translate(-181 -0.5)" fill="#fd850b"/>
      </g>
      <g id="Group_19" data-name="Group 19" transform="translate(0 18.999)">
        <path id="Path_3456" data-name="Path 3456" d="M.6,323.223a4.51,4.51,0,1,1,6.162,1.651A4.516,4.516,0,0,1,.6,323.223Z" transform="translate(0 -316.455)" fill="#fd850b"/>
      </g>
      <g id="Group_20" data-name="Group 20" transform="translate(21.768 18.999)">
        <path id="Path_3457" data-name="Path 3457" d="M364.243,324.873a4.51,4.51,0,1,1,6.162-1.651A4.509,4.509,0,0,1,364.243,324.873Z" transform="translate(-361.987 -316.455)" fill="#fd850b"/>
      </g>
    </g>
    <g id="Group_22" data-name="Group 22" transform="translate(1.885 5.876)">
      <path id="Path_3458" data-name="Path 3458" d="M33.152,108.889l-1.8-.1a13.581,13.581,0,0,1,6.1-10.567l.99,1.508A11.776,11.776,0,0,0,33.152,108.889Z" transform="translate(-31.352 -98.223)" fill="#526684"/>
    </g>
    <g id="Group_23" data-name="Group 23" transform="translate(21.816 5.876)">
      <path id="Path_3459" data-name="Path 3459" d="M368.074,108.889a11.776,11.776,0,0,0-5.287-9.157l.99-1.508a13.58,13.58,0,0,1,6.1,10.567Z" transform="translate(-362.787 -98.224)" fill="#526684"/>
    </g>
    <g id="Group_24" data-name="Group 24" transform="translate(9.295 27.669)">
      <path id="Path_3460" data-name="Path 3460" d="M160.673,463.685a13.4,13.4,0,0,1-6.1-1.449l.814-1.61a11.8,11.8,0,0,0,10.57,0l.814,1.61A13.4,13.4,0,0,1,160.673,463.685Z" transform="translate(-154.574 -460.626)" fill="#526684"/>
    </g>
  </g>
</svg>
