<svg xmlns="http://www.w3.org/2000/svg" width="32.409" height="32.409" viewBox="0 0 32.409 32.409">
  <g id="graduation" transform="translate(0 0)">
    <g id="Group_25" data-name="Group 25" transform="translate(0 0)">
      <path id="Path_3461" data-name="Path 3461" d="M16.538,13.232l15.255-5.7a.95.95,0,0,0,0-1.778L16.538.06a.961.961,0,0,0-.668,0L.616,5.757a.95.95,0,0,0,0,1.778l15.255,5.7A.954.954,0,0,0,16.538,13.232Z" transform="translate(0 0)" fill="#526684"/>
      <path id="Path_3462" data-name="Path 3462" d="M216.7,387H211v6.962a.949.949,0,0,0,1.621.671l1.228-1.228,1.228,1.228a.949.949,0,0,0,1.621-.671V387Z" transform="translate(-197.644 -362.502)" fill="#526684"/>
      <path id="Path_3463" data-name="Path 3463" d="M129.879,199.447l7.6-2.848a.95.95,0,0,0,.616-.889v-3.276l-7.545,2.829a2.854,2.854,0,0,1-1.994,0L121,192.433v3.277a.95.95,0,0,0,.616.889l7.6,2.848A.954.954,0,0,0,129.879,199.447Z" transform="translate(-113.341 -180.252)" fill="#526684"/>
      <path id="Path_3464" data-name="Path 3464" d="M424.8,158.685l-1.9.712v3.154a7.466,7.466,0,0,0-1.9,4.915v1.113a.949.949,0,0,0,.949.949h3.8a.949.949,0,0,0,.949-.949v-1.113a7.466,7.466,0,0,0-1.9-4.915Z" transform="translate(-394.352 -148.641)" fill="#fd850b"/>
      <path id="Path_3465" data-name="Path 3465" d="M33.848,361.993c-1.624,0-2.848,2.041-2.848,4.747s1.219,4.739,2.963,4.739h.011c2.812-.467,2.722-4.636,2.722-4.739S36.743,362.32,33.848,361.993Z" transform="translate(-29.038 -339.08)" fill="#fd850b"/>
    </g>
    <path id="Path_3466" data-name="Path 3466" d="M337.507,362.2h-.017L331,363.275v7.31l6.646,1.094c1.624,0,2.848-2.041,2.848-4.747S339.278,362.2,337.507,362.2Z" transform="translate(-310.048 -339.272)" fill="#fd850b"/>
    <path id="Path_3467" data-name="Path 3467" d="M138.535,379.387v-7.311l-2.87-.479a8.482,8.482,0,0,1,.971,4.139,8.69,8.69,0,0,1-.951,4.131Z" transform="translate(-127.078 -348.076)" fill="#fd850b"/>
  </g>
</svg>
