<svg xmlns="http://www.w3.org/2000/svg" xmlns:xlink="http://www.w3.org/1999/xlink" width="27.395" height="33.803" viewBox="0 0 27.395 33.803">
  <defs>
    <clipPath id="clip-path">
      <rect id="Rectangle_127" data-name="Rectangle 127" width="27.395" height="33.803" fill="none"/>
    </clipPath>
  </defs>
  <g id="Group_88" data-name="Group 88" transform="translate(0 0)">
    <g id="Group_87" data-name="Group 87" transform="translate(0 0)" clip-path="url(#clip-path)">
      <path id="Path_3692" data-name="Path 3692" d="M11.459,71.738a8.227,8.227,0,0,1-.933,2.738.281.281,0,0,1-.493,0A8.23,8.23,0,0,1,9.1,71.735a.564.564,0,0,1,.476-.639.578.578,0,0,1,.082-.006H10.9a.563.563,0,0,1,.566.561.55.55,0,0,1-.006.087m-1.8-1.771H10.9a.563.563,0,0,0,.564-.563.545.545,0,0,0-.006-.082,8.224,8.224,0,0,0-.934-2.741.281.281,0,0,0-.493,0A8.228,8.228,0,0,0,9.1,69.323a.563.563,0,0,0,.476.639.546.546,0,0,0,.082.006Zm3.511,0h1.179a.563.563,0,0,0,.545-.707,4.808,4.808,0,0,0-2.793-3.152.281.281,0,0,0-.358.384,9.3,9.3,0,0,1,.867,2.977.564.564,0,0,0,.56.5Zm-5.225-.5a9.3,9.3,0,0,1,.867-2.977.281.281,0,0,0-.362-.38,4.809,4.809,0,0,0-2.793,3.156.562.562,0,0,0,.545.707H7.386a.564.564,0,0,0,.563-.506Zm-.56,1.629H6.212a.563.563,0,0,0-.545.707,4.809,4.809,0,0,0,2.789,3.157.281.281,0,0,0,.358-.384A9.3,9.3,0,0,1,7.946,71.6a.564.564,0,0,0-.56-.5Zm13.175-8.38v22.6a2.256,2.256,0,0,1-2.254,2.254H2.254A2.256,2.256,0,0,1,0,85.319v-22.6a2.256,2.256,0,0,1,2.254-2.254H18.31a2.256,2.256,0,0,1,2.254,2.253Zm-6.057,18.31a.563.563,0,0,0-.563-.563H6.62a.563.563,0,0,0,0,1.127h7.324a.563.563,0,0,0,.563-.563ZM16.2,70.53a5.915,5.915,0,1,0-5.915,5.915A5.915,5.915,0,0,0,16.2,70.53ZM12.615,71.6a9.3,9.3,0,0,1-.867,2.977.281.281,0,0,0,.358.384A4.809,4.809,0,0,0,14.9,71.8a.563.563,0,0,0-.545-.707H13.174a.565.565,0,0,0-.56.5Z" transform="translate(0 -53.77)" fill="#fd850b"/>
      <path id="Path_3693" data-name="Path 3693" d="M129.8,1.69A1.69,1.69,0,0,0,128.106,0h-1.27A1.689,1.689,0,0,0,125.2,1.269a2.819,2.819,0,0,1-5.456,0A1.689,1.689,0,0,0,118.1,0h-1.27a1.69,1.69,0,0,0-1.69,1.69V5a.563.563,0,0,0,.563.563h5a3.38,3.38,0,0,1,3.38,3.38v22.6a3.368,3.368,0,0,1-.323,1.442.565.565,0,0,0,.506.812h3.832a1.69,1.69,0,0,0,1.69-1.69V1.69Zm-2.747,25.561h0a.563.563,0,1,1-1.127,0V15h0a.563.563,0,1,1,1.127,0Zm0-15.28h0a.563.563,0,1,1-1.127,0V10.564h0a.563.563,0,1,1,1.127,0Z" transform="translate(-102.402 0)" fill="#526684"/>
    </g>
  </g>
</svg>
